<svg width="233" height="239" viewBox="0 0 233 239" fill="none" xmlns="http://www.w3.org/2000/svg">
<path d="M52.315 97.0083C56.9631 82.9458 65.9335 70.7104 77.9466 62.0475C89.9597 53.3847 104.402 48.737 119.213 48.7674C136.001 48.7674 151.181 54.728 163.102 64.4835L197.793 29.8029C176.653 11.3748 149.562 0 119.213 0C72.2233 0 31.7709 26.8027 12.3196 66.063L52.315 97.0083Z" fill="#EA4335"/>
<path d="M159.348 178.947C148.519 185.931 134.77 189.656 119.213 189.656C104.461 189.687 90.074 185.076 78.0876 176.477C66.1012 167.878 57.1233 155.727 52.425 141.743L12.2905 172.212C22.1378 192.143 37.3772 208.913 56.2777 220.617C75.1782 232.321 96.9823 238.49 119.213 238.424C148.35 238.424 176.186 228.062 197.038 208.621L159.358 178.947H159.348Z" fill="#34A853"/>
<path d="M197.038 208.621C218.844 188.276 233 157.996 233 119.213C233 112.159 231.917 104.579 230.298 97.536H119.213V143.601H183.15C180.001 159.089 171.527 171.08 159.357 178.947L197.038 208.621Z" fill="#4A90E2"/>
<path d="M52.4244 141.742C49.994 134.479 48.7593 126.869 48.7686 119.211C48.7686 111.442 50.0104 103.981 52.3151 97.0074L12.3197 66.0621C4.13757 82.5797 -0.0802685 100.778 0.00115689 119.211C0.00115689 138.284 4.42191 156.265 12.2899 172.21L52.4244 141.742Z" fill="#FBBC05"/>
</svg>
